<svg width="22" height="21" viewBox="0 0 22 21" fill="none" xmlns="http://www.w3.org/2000/svg">
<path d="M11.6625 16.8731L16.3871 19.8729C16.9964 20.2572 17.7464 19.6854 17.5683 18.9823L16.1996 13.6015C16.1626 13.4523 16.1685 13.2957 16.2166 13.1498C16.2647 13.0038 16.3531 12.8745 16.4715 12.7765L20.7087 9.24241C21.2618 8.78307 20.9805 7.85501 20.2587 7.80814L14.7279 7.45192C14.577 7.44313 14.4319 7.39058 14.3103 7.30069C14.1888 7.21079 14.0961 7.08744 14.0435 6.9457L11.9812 1.75233C11.9266 1.60225 11.8272 1.4726 11.6963 1.38099C11.5655 1.28938 11.4097 1.24023 11.25 1.24023C11.0903 1.24023 10.9345 1.28938 10.8037 1.38099C10.6728 1.4726 10.5734 1.60225 10.5188 1.75233L8.45646 6.9457C8.4039 7.08744 8.31119 7.21079 8.18966 7.30069C8.06813 7.39058 7.92304 7.44313 7.77213 7.45192L2.2413 7.80814C1.51948 7.85501 1.23825 8.78307 1.79133 9.24241L6.02852 12.7765C6.14695 12.8745 6.2353 13.0038 6.2834 13.1498C6.33149 13.2957 6.33738 13.4523 6.30037 13.6015L5.03484 18.5886C4.81923 19.4323 5.71916 20.1166 6.44098 19.6573L10.8375 16.8731C10.9608 16.7947 11.1039 16.7531 11.25 16.7531C11.3961 16.7531 11.5392 16.7947 11.6625 16.8731V16.8731Z" stroke="#2A2630" stroke-width="1.49989" stroke-linecap="round" stroke-linejoin="round"/>
</svg>
